<?xml version="1.0" encoding="utf-8"?>
<!-- Generator: Adobe Illustrator 16.0.0, SVG Export Plug-In . SVG Version: 6.00 Build 0)  -->
<!DOCTYPE svg PUBLIC "-//W3C//DTD SVG 1.1//EN" "http://www.w3.org/Graphics/SVG/1.1/DTD/svg11.dtd">
<svg version="1.1" id="Calque_1" xmlns="http://www.w3.org/2000/svg" xmlns:xlink="http://www.w3.org/1999/xlink" x="0px" y="0px"
	 width="300px" height="120px" viewBox="0 0 300 120" enable-background="new 0 0 300 120" xml:space="preserve">
<g>
	<linearGradient id="SVGID_1_" gradientUnits="userSpaceOnUse" x1="42.1191" y1="87.5469" x2="96.7983" y2="22.3828">
		<stop  offset="0" style="stop-color:#A0C633"/>
		<stop  offset="0.45" style="stop-color:#A0C633"/>
		<stop  offset="1" style="stop-color:#68AE31"/>
	</linearGradient>
	<path fill="url(#SVGID_1_)" d="M88.518,19.099H27.305v30.813c0,29.849,24.2,54.049,54.049,54.049h19.241V31.176
		C100.595,23.875,94.488,19.099,88.518,19.099z"/>
	<g>
		<path fill="#A1A09F" d="M137.791,102.078v2.296h-15.797v15.245h-2.663V87.107h20.71v2.296h-18.047v12.675H137.791z"/>
		<path fill="#A1A09F" d="M159.971,104.925h-9.092v14.694h-2.664V87.107h11.022c3.488,0,6.199,0.781,8.035,2.296
			c1.838,1.562,2.756,3.766,2.756,6.705c0,1.745-0.506,3.306-1.516,4.638c-0.965,1.332-2.389,2.342-4.225,2.985
			c3.811,0.964,5.693,3.489,5.693,7.576v3.077c0,2.204,0.506,3.766,1.516,4.684v0.551h-2.709c-1.01-0.964-1.469-2.755-1.469-5.28
			v-2.985c0-1.975-0.645-3.581-1.975-4.729C164.057,105.476,162.266,104.925,159.971,104.925z M150.878,89.403v13.226h7.989
			c2.895,0,5.006-0.551,6.385-1.699c1.422-1.147,2.111-2.755,2.111-4.913c0-2.112-0.689-3.766-2.066-4.914
			c-1.332-1.147-3.352-1.699-6.061-1.699H150.878z"/>
		<path fill="#A1A09F" d="M201.758,119.619l-3.352-9.046h-14.924l-3.307,9.046h-2.756l12.354-32.512h2.479l12.262,32.512H201.758z
			 M190.92,90.552l-6.52,17.588h13.133l-6.475-17.588H190.92z"/>
		<path fill="#A1A09F" d="M236.016,87.107v32.512h-2.664l-18.461-27.966l-0.137,0.047v27.919h-2.664V87.107h2.664l18.459,27.92
			l0.139-0.046V87.107H236.016z"/>
		<path fill="#A1A09F" d="M266.047,117.369c-2.02,1.837-4.822,2.756-8.311,2.756c-3.537,0-6.385-1.286-8.635-3.903
			c-2.203-2.572-3.305-5.97-3.305-10.148v-5.281c0-4.179,1.102-7.577,3.305-10.194c2.25-2.571,5.098-3.903,8.635-3.903
			c3.535,0,6.336,0.918,8.357,2.755c2.02,1.791,3.168,4.363,3.443,7.715l-0.047,0.138h-2.479c-0.734-5.557-3.813-8.312-9.092-8.312
			c-2.848,0-5.145,1.103-6.844,3.261c-1.744,2.158-2.617,5.005-2.617,8.495v5.327c0,3.535,0.873,6.383,2.572,8.541
			c1.744,2.158,3.994,3.26,6.797,3.26c2.754,0,4.912-0.688,6.428-2.066c1.516-1.423,2.434-3.489,2.756-6.291h2.479l0.047,0.139
			C269.262,112.915,268.068,115.486,266.047,117.369z"/>
		<path fill="#A1A09F" d="M297.318,101.618v2.251h-15.611v13.5h17.908v2.25h-20.572V87.107h20.48v2.296h-17.816v12.215H297.318z"/>
	</g>
	<g>
		<path fill="#4F4F50" d="M123.968,70.622c-3.122-2.755-4.638-6.337-4.638-10.791c0-4.179,1.378-7.623,4.179-10.333
			c2.801-2.664,6.75-4.408,11.756-5.097l12.307-1.699c1.837-0.229,3.122-0.826,3.95-1.837c0.826-0.964,1.238-2.342,1.238-4.179
			v-0.78c0-2.985-1.193-5.465-3.535-7.302c-2.388-1.837-5.327-2.801-8.863-2.801c-2.755,0-5.143,0.551-7.209,1.653
			c-2.021,1.102-3.674,2.664-4.868,4.592c-0.505,0.827-1.102,1.24-1.883,1.24c-0.367,0-0.78-0.184-1.239-0.505l-2.525-1.699
			c-0.552-0.505-0.873-1.01-0.873-1.562c0-0.275,0.092-0.597,0.321-0.964c1.791-3.031,4.316-5.418,7.485-7.118
			c3.169-1.745,6.842-2.617,11.021-2.617c3.766,0,7.118,0.735,10.103,2.112c2.939,1.423,5.236,3.444,6.843,6.016
			c1.607,2.571,2.387,5.556,2.387,8.955v36.277c0,0.367-0.137,0.688-0.367,0.964c-0.275,0.229-0.551,0.367-0.965,0.367h-3.949
			c-0.367,0-0.688-0.138-0.963-0.367c-0.23-0.275-0.367-0.597-0.367-0.964v-6.521c-1.93,2.847-4.455,5.051-7.486,6.658
			c-3.077,1.607-6.383,2.388-9.965,2.388C130.995,74.709,127.045,73.377,123.968,70.622z M145,65.663
			c2.525-1.653,4.5-3.674,5.924-6.2c1.423-2.48,2.113-4.914,2.113-7.301v-3.857c-1.516,0.184-6.338,0.827-14.558,1.975l-2.617,0.367
			c-6.291,0.964-9.46,3.903-9.46,8.863c0,2.618,0.965,4.684,2.848,6.246c1.883,1.561,4.316,2.388,7.347,2.388
			C139.673,68.143,142.474,67.315,145,65.663z"/>
		<path fill="#4F4F50" d="M176.363,73.147c-0.275-0.275-0.367-0.597-0.367-0.964V21.395c0-0.413,0.092-0.689,0.367-0.964
			c0.23-0.229,0.551-0.367,0.92-0.367h4.729c0.414,0,0.689,0.138,0.965,0.367c0.23,0.275,0.367,0.551,0.367,0.964v5.097
			c1.516-2.525,3.535-4.454,6.016-5.74c2.48-1.286,5.234-1.928,8.266-1.928c3.949,0,7.393,0.918,10.332,2.801
			c2.893,1.836,5.006,4.362,6.246,7.577c1.332-3.306,3.398-5.878,6.152-7.623c2.801-1.791,5.924-2.664,9.461-2.664
			c5.326,0,9.689,1.653,12.994,4.914c3.307,3.26,4.961,7.577,4.961,12.949v35.405c0,0.367-0.139,0.688-0.414,0.964
			c-0.23,0.229-0.551,0.367-0.918,0.367h-4.73c-0.367,0-0.689-0.138-0.965-0.367c-0.229-0.275-0.367-0.597-0.367-0.964V38.202
			c0-4.041-1.057-7.118-3.168-9.23c-2.113-2.112-4.959-3.168-8.541-3.168c-3.904,0-7.072,1.377-9.506,4.179
			c-2.389,2.755-3.627,6.566-3.627,11.434v30.767c0,0.367-0.092,0.688-0.369,0.964c-0.229,0.229-0.551,0.367-0.963,0.367h-4.684
			c-0.414,0-0.689-0.138-0.965-0.367c-0.23-0.275-0.367-0.597-0.367-0.964V38.11c0-4.041-1.057-7.118-3.17-9.23
			c-2.111-2.113-4.959-3.168-8.541-3.168c-3.902,0-7.07,1.377-9.506,4.179c-2.434,2.755-3.627,6.566-3.627,11.434v30.859
			c0,0.367-0.137,0.688-0.367,0.964c-0.275,0.229-0.551,0.367-0.965,0.367h-4.729C176.914,73.515,176.594,73.377,176.363,73.147z"/>
		<path fill="#4F4F50" d="M264.164,70.622c-3.076-2.755-4.592-6.337-4.592-10.791c0-4.179,1.377-7.623,4.18-10.333
			c2.801-2.664,6.703-4.408,11.754-5.097l12.262-1.699c1.836-0.229,3.168-0.826,3.996-1.837c0.826-0.964,1.238-2.342,1.238-4.179
			v-0.78c0-2.985-1.193-5.465-3.582-7.302c-2.342-1.837-5.279-2.801-8.816-2.801c-2.754,0-5.189,0.551-7.209,1.653
			c-2.066,1.102-3.674,2.664-4.867,4.592c-0.506,0.827-1.148,1.24-1.883,1.24c-0.367,0-0.781-0.184-1.24-0.505l-2.525-1.699
			c-0.598-0.505-0.873-1.01-0.873-1.562c0-0.275,0.092-0.597,0.275-0.964c1.838-3.031,4.316-5.418,7.531-7.118
			c3.168-1.745,6.842-2.617,10.975-2.617c3.813,0,7.164,0.735,10.104,2.112c2.984,1.423,5.234,3.444,6.887,6.016
			c1.563,2.571,2.389,5.556,2.389,8.955v36.277c0,0.367-0.092,0.688-0.367,0.964c-0.275,0.229-0.551,0.367-1.01,0.367h-3.904
			c-0.412,0-0.688-0.138-0.963-0.367c-0.23-0.275-0.369-0.597-0.369-0.964v-6.521c-1.975,2.847-4.453,5.051-7.529,6.658
			c-3.031,1.607-6.338,2.388-9.965,2.388C271.236,74.709,267.287,73.377,264.164,70.622z M285.242,65.663
			c2.525-1.653,4.5-3.674,5.877-6.2c1.424-2.48,2.158-4.914,2.158-7.301v-3.857c-1.514,0.184-6.383,0.827-14.557,1.975l-2.662,0.367
			c-6.291,0.964-9.414,3.903-9.414,8.863c0,2.618,0.918,4.684,2.846,6.246c1.883,1.561,4.318,2.388,7.348,2.388
			C279.916,68.143,282.717,67.315,285.242,65.663z"/>
		<path fill="#4F4F50" d="M109.32,65.893c-0.275-0.275-0.597-0.413-0.965-0.413H93.202c-10.699,0-19.379-8.726-19.379-19.425v-4.409
			v-5.005v-5.005v-1.562V2.292c0-0.459-0.138-0.78-0.413-1.056c-0.275-0.275-0.643-0.413-1.056-0.413h-5.648
			c-0.413,0-0.781,0.138-1.057,0.413c-0.275,0.276-0.413,0.597-0.413,1.056v29.344h0.046v16.531
			c0,14.006,11.343,25.348,25.349,25.348h17.633c0.414,0,0.781-0.138,1.057-0.413s0.413-0.643,0.413-1.056v-5.144
			C109.733,66.489,109.595,66.168,109.32,65.893z"/>
	</g>
	<g>
		<path fill="#66AE2F" d="M27.305,49.912V19.099H12.198c-6.659,0-12.031,5.418-12.031,12.077v76.32
			c0,6.659,5.372,12.031,12.031,12.031h76.32c6.658,0,12.077-5.372,12.077-12.031v-3.535H81.354
			C51.505,103.961,27.305,79.761,27.305,49.912z"/>
	</g>
</g>
</svg>
